<?xml version="1.0" encoding="utf-8"?>
<!-- Generator: Adobe Illustrator 27.9.0, SVG Export Plug-In . SVG Version: 6.00 Build 0)  -->
<svg version="1.1" id="Layer_1" xmlns="http://www.w3.org/2000/svg" xmlns:xlink="http://www.w3.org/1999/xlink" x="0px" y="0px"
	 viewBox="0 0 17 16" style="enable-background:new 0 0 17 16;" xml:space="preserve">
<style type="text/css">
	.st0{fill:#FFFFFF;}
</style>
<path class="st0" d="M10.5,13.8c-0.1,0-0.3-0.1-0.4-0.1L5.8,9.3c-0.7-0.7-0.7-1.9,0-2.6l4.3-4.3c0.2-0.2,0.5-0.2,0.7,0
	c0.2,0.2,0.2,0.5,0,0.7L6.5,7.4c-0.3,0.3-0.3,0.8,0,1.2c0,0,0,0,0,0l4.3,4.3c0.2,0.2,0.2,0.5,0,0.7C10.8,13.7,10.6,13.8,10.5,13.8
	L10.5,13.8z"/>
</svg>
