<svg width="41" height="40" viewBox="0 0 41 40" fill="none" xmlns="http://www.w3.org/2000/svg">
<rect x="0.5" width="40" height="40" rx="4" fill="#E5F2E9"/>
<path d="M26.69 25.75H16.04C15.05 25.75 14.1 25.33 13.43 24.6C12.76 23.87 12.42 22.89 12.5 21.9L13.33 11.94C13.36 11.63 13.25 11.33 13.04 11.1C12.83 10.87 12.54 10.75 12.23 10.75H10.5C10.09 10.75 9.75 10.41 9.75 10C9.75 9.59 10.09 9.25 10.5 9.25H12.24C12.97 9.25 13.66 9.56 14.15 10.09C14.42 10.39 14.62 10.74 14.73 11.13H27.22C28.23 11.13 29.16 11.53 29.84 12.25C30.51 12.98 30.85 13.93 30.77 14.94L30.23 22.44C30.12 24.27 28.52 25.75 26.69 25.75ZM14.78 12.62L14 22.02C13.95 22.6 14.14 23.15 14.53 23.58C14.92 24.01 15.46 24.24 16.04 24.24H26.69C27.73 24.24 28.67 23.36 28.75 22.32L29.29 14.82C29.33 14.23 29.14 13.67 28.75 13.26C28.36 12.84 27.82 12.61 27.23 12.61H14.78V12.62Z" fill="#417F56"/>
<path d="M24.75 30.75C23.65 30.75 22.75 29.85 22.75 28.75C22.75 27.65 23.65 26.75 24.75 26.75C25.85 26.75 26.75 27.65 26.75 28.75C26.75 29.85 25.85 30.75 24.75 30.75ZM24.75 28.25C24.47 28.25 24.25 28.47 24.25 28.75C24.25 29.03 24.47 29.25 24.75 29.25C25.03 29.25 25.25 29.03 25.25 28.75C25.25 28.47 25.03 28.25 24.75 28.25Z" fill="#417F56"/>
<path d="M16.75 30.75C15.65 30.75 14.75 29.85 14.75 28.75C14.75 27.65 15.65 26.75 16.75 26.75C17.85 26.75 18.75 27.65 18.75 28.75C18.75 29.85 17.85 30.75 16.75 30.75ZM16.75 28.25C16.47 28.25 16.25 28.47 16.25 28.75C16.25 29.03 16.47 29.25 16.75 29.25C17.03 29.25 17.25 29.03 17.25 28.75C17.25 28.47 17.03 28.25 16.75 28.25Z" fill="#417F56"/>
<path d="M29.5 16.75H17.5C17.09 16.75 16.75 16.41 16.75 16C16.75 15.59 17.09 15.25 17.5 15.25H29.5C29.91 15.25 30.25 15.59 30.25 16C30.25 16.41 29.91 16.75 29.5 16.75Z" fill="#417F56"/>
</svg>
