<svg width="24" height="24" viewBox="0 0 24 24" fill="none" xmlns="http://www.w3.org/2000/svg">
<rect width="24" height="24" rx="4" fill="#E5F2E9"/>
<path d="M16.1268 15.8333H9.02682C8.36683 15.8333 7.73349 15.5533 7.28682 15.0667C6.84016 14.58 6.6135 13.9267 6.66683 13.2667L7.22016 6.62668C7.24016 6.42001 7.16683 6.22001 7.02682 6.06668C6.88683 5.91335 6.69349 5.83334 6.48683 5.83334H5.3335C5.06016 5.83334 4.8335 5.60668 4.8335 5.33334C4.8335 5.06001 5.06016 4.83334 5.3335 4.83334H6.4935C6.98017 4.83334 7.44016 5.04001 7.76683 5.39334C7.94683 5.59334 8.08016 5.82668 8.15349 6.08668H16.4802C17.1535 6.08668 17.7735 6.35334 18.2268 6.83334C18.6735 7.32001 18.9002 7.95335 18.8468 8.62668L18.4868 13.6267C18.4135 14.8467 17.3468 15.8333 16.1268 15.8333ZM8.18683 7.08001L7.66683 13.3467C7.6335 13.7333 7.76016 14.1 8.02016 14.3867C8.28016 14.6733 8.64016 14.8267 9.02682 14.8267H16.1268C16.8202 14.8267 17.4468 14.24 17.5002 13.5467L17.8602 8.54668C17.8868 8.15335 17.7602 7.78002 17.5002 7.50668C17.2402 7.22668 16.8802 7.07333 16.4868 7.07333H8.18683V7.08001Z" fill="#417F56"/>
<path d="M14.8333 19.1667C14.1 19.1667 13.5 18.5667 13.5 17.8333C13.5 17.1 14.1 16.5 14.8333 16.5C15.5667 16.5 16.1667 17.1 16.1667 17.8333C16.1667 18.5667 15.5667 19.1667 14.8333 19.1667ZM14.8333 17.5C14.6467 17.5 14.5 17.6467 14.5 17.8333C14.5 18.02 14.6467 18.1667 14.8333 18.1667C15.02 18.1667 15.1667 18.02 15.1667 17.8333C15.1667 17.6467 15.02 17.5 14.8333 17.5Z" fill="#417F56"/>
<path d="M9.49984 19.1667C8.7665 19.1667 8.1665 18.5667 8.1665 17.8333C8.1665 17.1 8.7665 16.5 9.49984 16.5C10.2332 16.5 10.8332 17.1 10.8332 17.8333C10.8332 18.5667 10.2332 19.1667 9.49984 19.1667ZM9.49984 17.5C9.31317 17.5 9.1665 17.6467 9.1665 17.8333C9.1665 18.02 9.31317 18.1667 9.49984 18.1667C9.6865 18.1667 9.83317 18.02 9.83317 17.8333C9.83317 17.6467 9.6865 17.5 9.49984 17.5Z" fill="#417F56"/>
<path d="M18 9.83331H10C9.72667 9.83331 9.5 9.60665 9.5 9.33331C9.5 9.05998 9.72667 8.83331 10 8.83331H18C18.2733 8.83331 18.5 9.05998 18.5 9.33331C18.5 9.60665 18.2733 9.83331 18 9.83331Z" fill="#417F56"/>
</svg>
