<?xml version="1.0" encoding="utf-8"?>
<!-- Generator: Adobe Illustrator 27.9.0, SVG Export Plug-In . SVG Version: 6.00 Build 0)  -->
<svg version="1.1" id="Layer_1" xmlns="http://www.w3.org/2000/svg" xmlns:xlink="http://www.w3.org/1999/xlink" x="0px" y="0px"
	 viewBox="0 0 24 24" style="enable-background:new 0 0 24 24;" xml:space="preserve">
<style type="text/css">
	.st0{fill:#FFFFFF;}
</style>
<path class="st0" d="M17.6,22.6H6.4c-1.8,0-3.5-1.4-3.8-3.2l-1.3-8c-0.2-1.2,0.4-2.8,1.4-3.6l6.9-5.5c1.3-1.1,3.4-1.1,4.8,0l6.9,5.5
	c1,0.8,1.6,2.4,1.4,3.6l-1.3,8C21.1,21.1,19.4,22.6,17.6,22.6z M12,2.9c-0.5,0-1.1,0.2-1.4,0.5L3.6,9c-0.6,0.5-1,1.5-0.8,2.2l1.3,8
	c0.2,1,1.2,1.9,2.3,1.9h11.2c1.1,0,2.1-0.9,2.3-2l1.3-8c0.1-0.7-0.3-1.8-0.8-2.2l-6.9-5.5C13.1,3.1,12.5,2.9,12,2.9z"/>
<path class="st0" d="M14.1,15.1c-0.2,0-0.4-0.1-0.5-0.2c-1-0.9-2.2-0.9-3.2,0c-0.3,0.3-0.8,0.3-1.1,0c-0.3-0.3-0.3-0.8,0-1.1
	c1.6-1.5,3.7-1.5,5.3,0c0.3,0.3,0.3,0.8,0,1.1C14.5,15,14.3,15.1,14.1,15.1z"/>
<path class="st0" d="M16.2,13c-0.2,0-0.4-0.1-0.5-0.2c-0.5-0.5-1-0.8-1.6-1.1c-1.4-0.7-2.9-0.7-4.3,0c-0.6,0.3-1.1,0.6-1.6,1.1
	c-0.3,0.3-0.8,0.3-1.1,0s-0.3-0.8,0-1.1c0.6-0.6,1.3-1,2-1.4c1.8-0.9,3.8-0.9,5.6,0c0.7,0.3,1.4,0.8,2,1.4c0.3,0.3,0.3,0.8,0,1.1
	C16.6,12.9,16.4,13,16.2,13z M12,17.5c-0.3,0-0.5-0.1-0.7-0.3c-0.4-0.4-0.4-1,0-1.4c0,0,0,0,0,0c0.4-0.4,1-0.4,1.4,0
	c0.4,0.4,0.4,1,0,1.4C12.5,17.4,12.3,17.5,12,17.5z"/>
</svg>
