<svg width="48" height="48" viewBox="0 0 48 48" fill="none" xmlns="http://www.w3.org/2000/svg">
<path d="M35.1997 45.12H12.7997C9.15966 45.12 5.83966 42.3199 5.23966 38.7199L2.57969 22.8C2.15969 20.32 3.3597 17.14 5.3397 15.56L19.1997 4.45988C21.8797 2.29988 26.0997 2.3199 28.7997 4.4799L42.6596 15.56C44.6196 17.14 45.8197 20.32 45.4197 22.8L42.7597 38.7199C42.1597 42.2599 38.7797 45.12 35.1997 45.12ZM23.9797 5.8798C22.9197 5.8798 21.8597 6.19999 21.0797 6.81999L7.21964 17.9198C6.07964 18.8398 5.29965 20.88 5.53965 22.32L8.19968 38.2399C8.55968 40.3399 10.6597 42.12 12.7997 42.12H35.1997C37.3397 42.12 39.4397 40.3399 39.7997 38.2199L42.4597 22.3C42.6997 20.86 41.8997 18.7998 40.7797 17.8998L26.9197 6.81999C26.1197 6.19999 25.0597 5.8798 23.9797 5.8798Z" fill="white"/>
<path d="M28.2401 30.2599C27.8601 30.2599 27.5001 30.12 27.2001 29.84C25.2601 27.98 22.7401 27.98 20.7801 29.84C20.1801 30.42 19.2401 30.3999 18.6601 29.7999C18.0801 29.1999 18.1001 28.2598 18.7001 27.6798C21.8001 24.6998 26.1401 24.6998 29.2601 27.6798C29.8601 28.2598 29.8801 29.1999 29.3001 29.7999C29.0401 30.0999 28.6401 30.2599 28.2401 30.2599Z" fill="white"/>
<path d="M32.4797 26.0201C32.0997 26.0201 31.7198 25.8802 31.4398 25.6002C30.4998 24.6802 29.4398 23.94 28.3198 23.4C25.5198 22.06 22.4598 22.06 19.6798 23.4C18.5598 23.94 17.5198 24.6802 16.5598 25.6002C15.9798 26.1802 15.0198 26.1801 14.4398 25.5801C13.8598 24.9801 13.8798 24.04 14.4598 23.46C15.6398 22.3 16.9598 21.38 18.3798 20.7C21.9998 18.96 25.9997 18.96 29.5997 20.7C31.0197 21.38 32.3398 22.3 33.5198 23.46C34.1198 24.04 34.1197 24.9801 33.5397 25.5801C33.2597 25.8601 32.8797 26.0201 32.4797 26.0201Z" fill="white"/>
<path d="M24.0001 35C23.4801 35 22.9801 34.8 22.5801 34.42C21.8001 33.64 21.8001 32.3801 22.5801 31.6001C23.3601 30.8201 24.6401 30.8201 25.4201 31.6001C26.2001 32.3801 26.2001 33.64 25.4201 34.42C25.0201 34.8 24.5201 35 24.0001 35Z" fill="white"/>

</svg>
