  <svg xmlns="http://www.w3.org/2000/svg" width="16" height="16" fill="none">
    <g clipPath="url(#a)">
      <path
        fill="#EDEDED"
        d="M5.12.96A4.165 4.165 0 0 0 .96 5.12v5.76a4.165 4.165 0 0 0 4.16 4.16h5.76a4.165 4.165 0 0 0 4.16-4.16V5.12A4.165 4.165 0 0 0 10.88.96H5.12Zm0 .64h5.76a3.515 3.515 0 0 1 3.52 3.52v5.76a3.515 3.515 0 0 1-3.52 3.52H5.12a3.515 3.515 0 0 1-3.52-3.52V5.12A3.515 3.515 0 0 1 5.12 1.6Zm6.72 1.92a.64.64 0 1 0 0 1.28.64.64 0 0 0 0-1.28ZM8 4.48C6.06 4.48 4.48 6.06 4.48 8S6.06 11.52 8 11.52 11.52 9.94 11.52 8 9.94 4.48 8 4.48Zm0 .64A2.875 2.875 0 0 1 10.88 8 2.875 2.875 0 0 1 8 10.88 2.875 2.875 0 0 1 5.12 8 2.875 2.875 0 0 1 8 5.12Z"
      />
    </g>
    <defs>
      <clipPath id="a">
        <path fill="#EDEDED" d="M0 0h16v16H0z" />
      </clipPath>
    </defs>
  </svg>