  <svg xmlns="http://www.w3.org/2000/svg" width="22" height="23" fill="none">
    <path
      fill="#EDEDED"
      d="M6.68.94C3.24.94.44 3.74.44 7.18v8.64c0 3.44 2.8 6.24 6.24 6.24h8.64c3.44 0 6.24-2.8 6.24-6.24V7.18c0-3.44-2.8-6.24-6.24-6.24H6.68Zm0 .96h8.64a5.273 5.273 0 0 1 5.28 5.28v8.64a5.273 5.273 0 0 1-5.28 5.28H6.68a5.273 5.273 0 0 1-5.28-5.28V7.18A5.273 5.273 0 0 1 6.68 1.9Zm10.08 2.88a.96.96 0 1 0 0 1.92.96.96 0 0 0 0-1.92ZM11 6.22c-2.91 0-5.28 2.37-5.28 5.28s2.37 5.28 5.28 5.28 5.28-2.37 5.28-5.28S13.91 6.22 11 6.22Zm0 .96a4.313 4.313 0 0 1 4.32 4.32A4.313 4.313 0 0 1 11 15.82a4.313 4.313 0 0 1-4.32-4.32A4.313 4.313 0 0 1 11 7.18Z"
    />
  </svg>