<?xml version="1.0" encoding="utf-8"?>
<!-- Generator: Adobe Illustrator 27.9.0, SVG Export Plug-In . SVG Version: 6.00 Build 0)  -->
<svg version="1.1" id="Layer_1" xmlns="http://www.w3.org/2000/svg" xmlns:xlink="http://www.w3.org/1999/xlink" x="0px" y="0px"
	 viewBox="0 0 24 24" style="enable-background:new 0 0 24 24;" xml:space="preserve">
<style type="text/css">
	.st0{fill:#FFFFFF;}
</style>
<path class="st0" d="M22,22.8H5c-2.1,0-3.8-1.7-3.8-3.8V2c0-0.4,0.3-0.8,0.8-0.8S2.8,1.6,2.8,2v17c0,1.2,1,2.2,2.2,2.2h17
	c0.4,0,0.8,0.3,0.8,0.8S22.4,22.8,22,22.8z"/>
<path class="st0" d="M5,17.8c-0.2,0-0.3-0.1-0.5-0.2c-0.3-0.3-0.3-0.7-0.1-1.1L9,11.1c0.5-0.6,1.2-0.9,2-1c0.8,0,1.5,0.3,2.1,0.8
	l0.9,0.9c0.2,0.2,0.6,0.4,0.9,0.4c0.4,0,0.7-0.2,0.9-0.4l4.6-5.4c0.3-0.3,0.7-0.3,1.1-0.1c0.3,0.3,0.4,0.7,0.1,1.1L17,12.9
	c-0.5,0.6-1.2,0.9-2,1c-0.8,0-1.5-0.3-2.1-0.8L12,12.1c-0.2-0.2-0.6-0.4-0.9-0.4s-0.7,0.2-0.9,0.4l-4.6,5.4
	C5.4,17.7,5.2,17.7,5,17.8z"/>
</svg>
