<svg width="156" height="51" viewBox="0 0 156 51" fill="none" xmlns="http://www.w3.org/2000/svg">
<path d="M1.42725 12.3983C1.42725 12.3175 1.47471 12.277 1.56964 12.277C1.69269 12.277 1.88782 12.3561 2.15502 12.5144C4.63718 14.0472 7.85942 14.8137 11.8217 14.8137C14.2476 14.8137 16.612 14.3936 18.9149 13.5533C19.3192 13.4021 19.7376 13.156 20.17 12.815C20.5286 12.4845 20.8925 12.1575 21.2617 11.834L21.3039 11.7708C21.3039 11.6618 21.0806 11.5756 20.6341 11.5124C20.388 11.4596 20.1278 11.4227 19.8536 11.4016C19.6813 11.3735 19.488 11.2838 19.2735 11.1326C19.0344 10.9885 18.9079 10.8303 18.8938 10.658V10.2467C18.8938 9.56811 19.1979 8.82803 19.8061 8.02642C20.4144 7.22482 21.0349 6.76249 21.6678 6.63944C22.0088 6.78359 22.1793 7.01036 22.1793 7.31975C22.1793 7.45686 22.1424 7.65199 22.0686 7.90513C21.9772 8.17585 21.8629 8.32351 21.7258 8.34812C21.4445 8.05982 21.2599 7.91568 21.172 7.91568C20.9435 7.91568 20.5919 8.18112 20.1173 8.71201C19.6462 9.23938 19.4106 9.62436 19.4106 9.86695C19.4106 9.94781 19.4229 9.99879 19.4475 10.0199C19.7042 10.1922 19.9415 10.2924 20.1595 10.3205C20.8697 10.4224 21.2441 10.4805 21.2828 10.4945C21.7152 10.6246 21.9314 10.8988 21.9314 11.3172C21.9314 11.9852 21.6361 12.6444 21.0455 13.2949C20.5251 13.8328 19.9204 14.2424 19.2313 14.5236C18.1484 14.9491 16.9267 15.3059 15.5661 15.5942C14.1492 15.8966 12.8941 16.0477 11.8006 16.0477C8.85439 16.0477 6.53572 15.7225 4.84461 15.0721C4.46139 14.8998 4.22231 14.7926 4.12739 14.7504C3.48751 14.318 2.97772 13.9576 2.59801 13.6693C1.8175 13.0013 1.42725 12.5776 1.42725 12.3983Z" fill="#417F56"/>
<path d="M23.0126 3.43302C23.1005 2.86346 23.2411 2.49957 23.4345 2.34136C23.4661 2.37652 23.4925 2.40113 23.5136 2.41519C23.605 2.90389 23.714 3.69495 23.8405 4.78836C23.9671 5.87827 24.0726 6.85918 24.157 7.7311C24.2448 8.60302 24.2888 9.06359 24.2888 9.11281C24.2888 9.21477 24.2624 9.3765 24.2097 9.59799C24.1605 9.81597 24.0568 9.96364 23.8985 10.041C23.786 9.14797 23.6735 8.26023 23.561 7.37776C23.452 6.49529 23.3325 5.62688 23.2024 4.77254C23.0758 3.91469 23.0126 3.46818 23.0126 3.43302Z" fill="#417F56"/>
<path d="M27.8011 8.94932C27.8011 8.66103 27.9259 8.19694 28.1755 7.55706C28.4498 6.93125 28.6853 6.50584 28.8822 6.28083C29.3498 6.52693 29.6838 6.74667 29.8842 6.94004C30.1584 7.2213 30.2956 7.58519 30.2956 8.0317C30.2956 8.8544 30.0143 9.44154 29.4518 9.79312C29.4096 9.86344 29.283 9.91793 29.0721 9.9566C28.8646 9.99176 28.7029 10.0093 28.5869 10.0093C28.3372 10.0093 28.1369 9.89332 27.9857 9.66128C27.8626 9.44681 27.8011 9.20949 27.8011 8.94932ZM28.4603 8.46414C28.4603 8.54501 28.5078 8.62939 28.6027 8.71728C28.7011 8.80166 28.7785 8.84385 28.8347 8.84385H28.9982C29.3428 8.84385 29.566 8.77178 29.668 8.62763C29.668 8.36746 29.5783 8.13893 29.399 7.94205C29.2197 7.74164 29.0176 7.62035 28.7925 7.57816C28.5711 7.96138 28.4603 8.25671 28.4603 8.46414Z" fill="#417F56"/>
<path d="M30.5856 13.2158C30.5856 13.1454 30.8423 13.0382 31.3556 12.8941C32.1255 12.6409 32.6547 12.4282 32.943 12.2559C33.4809 11.9395 33.8483 11.5756 34.0452 11.1643C34.0803 11.0623 34.0979 11.0043 34.0979 10.9903C34.0979 10.5437 34.0575 10.1799 33.9766 9.89859C33.9344 9.77906 33.7692 9.43451 33.4809 8.86495C33.5266 8.29538 33.6057 7.95259 33.7182 7.83657L33.9344 7.96841C34.1383 8.28484 34.2544 8.46063 34.2825 8.49579C34.4126 8.63993 34.5919 8.74541 34.8204 8.81221C35.1017 8.92471 35.2827 8.96339 35.3636 8.92823V10.0199C35.0894 10.034 34.8186 10.0023 34.5514 9.92496V10.4207C34.5514 11.0746 34.3633 11.6864 33.9872 12.2559C33.6145 12.8255 33.1328 13.2316 32.5422 13.4742C31.2378 13.5128 30.5856 13.4267 30.5856 13.2158Z" fill="#417F56"/>
<path d="M35.1526 8.92823C35.332 8.93526 35.5939 8.86319 35.9384 8.71201C36.283 8.56083 36.4887 8.48524 36.5555 8.48524C36.6855 8.48524 36.9106 8.55907 37.2305 8.70673C37.5504 8.8544 37.8071 8.92823 38.0005 8.92823V10.0199C37.779 10.0199 37.5118 9.93903 37.1988 9.7773C36.8859 9.61557 36.6715 9.53471 36.5555 9.53471C36.5027 9.53471 36.3217 9.61557 36.0123 9.7773C35.7029 9.93903 35.448 10.0199 35.2476 10.0199H35.1526V8.92823ZM36.6398 11.8182C36.8051 11.3366 36.9563 11.0711 37.0934 11.0219C37.2164 11.0852 37.35 11.1643 37.4942 11.2592C37.6454 11.3823 37.7491 11.493 37.8053 11.5915C37.6963 12.147 37.5416 12.4247 37.3412 12.4247C37.2674 12.4247 37.1338 12.3491 36.9404 12.1979C36.7893 12.0397 36.6891 11.9132 36.6398 11.8182ZM35.3741 12.3034C35.3741 12.1382 35.5042 11.8692 35.7644 11.4965C36.1617 11.7708 36.4166 11.9641 36.5291 12.0766V12.1136C36.5291 12.2401 36.4939 12.3948 36.4236 12.5776C36.3427 12.771 36.2636 12.8677 36.1863 12.8677C36.0984 12.8677 35.9402 12.7939 35.7117 12.6462C35.4867 12.4985 35.3741 12.3843 35.3741 12.3034Z" fill="#417F56"/>
<path d="M37.7631 8.92823C38.3327 8.92823 38.9427 8.85616 39.5931 8.71201C40.2963 8.5327 40.8781 8.31296 41.3387 8.05279C40.4387 7.75043 39.9289 7.59925 39.8093 7.59925C39.6582 7.59925 39.4226 7.65199 39.1027 7.75747C38.7862 7.86294 38.5419 7.91568 38.3696 7.91568C38.5419 7.31096 38.6438 6.99629 38.6755 6.97168C38.7669 6.79941 38.9972 6.61658 39.3663 6.42322C39.4929 6.3529 39.6687 6.31774 39.8937 6.31774C39.9886 6.31774 40.3771 6.4654 41.0592 6.76073C41.8151 7.09825 42.2686 7.29162 42.4198 7.34084C43.2039 7.57992 43.9492 7.69945 44.6559 7.69945C44.7227 7.75571 44.7596 7.80141 44.7666 7.83657C44.7666 7.96666 44.6752 8.22331 44.4924 8.60653H44.3131C43.8349 8.60653 43.4746 8.56962 43.232 8.49579L43.2003 8.64872L43.232 8.8333C43.3761 8.97745 43.5888 9.04953 43.8701 9.04953C44.292 9.04953 44.6875 9.00909 45.0567 8.92823V10.0199L43.9017 10.041C43.6205 10.048 43.3884 9.9566 43.2056 9.76675C43.0263 9.5769 42.9366 9.34134 42.9366 9.06007C42.9366 9.01437 42.9437 8.94757 42.9577 8.85967C42.9753 8.76826 42.9841 8.69794 42.9841 8.64872V8.49579C42.6501 8.49579 42.2599 8.57138 41.8133 8.72256C41.2016 8.94757 40.7234 9.14269 40.3789 9.30794C39.7039 9.58217 39.2978 9.73687 39.1607 9.77202C38.7001 9.93727 38.2747 10.0199 37.8844 10.0199H37.7631V8.92823ZM40.4475 11.8024C40.6057 11.2469 40.7709 10.9551 40.9432 10.927C41.0522 10.941 41.1963 10.999 41.3756 11.101C41.6006 11.2451 41.7131 11.3682 41.7131 11.4702C41.7131 11.5475 41.6762 11.6829 41.6024 11.8762C41.5321 12.052 41.4565 12.1751 41.3756 12.2454H41.3229C41.1858 12.2454 41.0205 12.1979 40.8272 12.103C40.574 12.0257 40.4475 11.9255 40.4475 11.8024Z" fill="#417F56"/>
<path d="M44.6084 5.51086C44.7666 4.95537 44.9319 4.66355 45.1041 4.63543C45.2131 4.64949 45.3573 4.7075 45.5366 4.80946C45.7616 4.95361 45.8741 5.07666 45.8741 5.17862C45.8741 5.25597 45.8372 5.39133 45.7634 5.5847C45.693 5.76049 45.6175 5.88354 45.5366 5.95386H45.4839C45.3467 5.95386 45.1815 5.90639 44.9881 5.81146C44.735 5.73412 44.6084 5.63392 44.6084 5.51086ZM44.8774 8.92823C45.3661 8.93526 45.6421 8.83154 45.7053 8.61708C45.6843 8.52919 45.5981 8.36394 45.4469 8.12135C45.3169 7.91743 45.2413 7.74692 45.2202 7.6098C45.301 7.38127 45.3977 7.12638 45.5102 6.84511H45.5577C45.7159 6.84511 45.8671 7.07188 46.0112 7.52542C46.1624 7.92271 46.238 8.23562 46.238 8.46414C46.238 8.95987 46.1589 9.33079 46.0007 9.5769C45.8108 9.87222 45.4856 10.0199 45.025 10.0199H44.8774V8.92823Z" fill="#417F56"/>
<path d="M45.8741 12.2243C46.8374 12.1645 47.4052 12.1136 47.5775 12.0714C48.0873 11.9132 48.5848 11.5985 49.07 11.1274C49.5587 10.6562 49.8892 10.1605 50.0614 9.64018C49.8962 9.35189 49.738 9.06886 49.5868 8.79111C49.3407 8.32703 49.2176 8.02291 49.2176 7.87876L49.2546 7.76274C49.2686 7.73461 49.3143 7.61859 49.3917 7.41467C49.4514 7.23537 49.5095 7.14571 49.5657 7.14571C49.7309 7.14571 49.9261 7.38655 50.1511 7.86821C50.3796 8.28659 50.4939 8.60126 50.4939 8.81221C50.4939 10.215 50.0685 11.3453 49.2176 12.2032C48.8168 12.5899 48.4037 12.7833 47.9783 12.7833C47.7252 12.7833 47.0835 12.6937 46.0534 12.5144C46.0253 12.4933 45.9655 12.4282 45.8741 12.3192V12.2243ZM48.2156 6.00132C48.3738 5.44582 48.5391 5.15401 48.7114 5.12588C48.8204 5.13995 48.9645 5.19796 49.1438 5.29991C49.3688 5.44406 49.4813 5.56712 49.4813 5.66907C49.4813 5.74642 49.4444 5.88178 49.3706 6.07515C49.3003 6.25094 49.2247 6.37399 49.1438 6.44431H49.0911C48.954 6.44431 48.7887 6.39685 48.5953 6.30192C48.3422 6.22457 48.2156 6.12437 48.2156 6.00132Z" fill="#417F56"/>
<path d="M38.512 12.3983C38.512 12.3175 38.5595 12.277 38.6544 12.277C38.7774 12.277 38.9726 12.3561 39.2398 12.5144C41.7219 14.0472 44.9442 14.8137 48.9065 14.8137C51.3324 14.8137 53.6968 14.3936 55.9996 13.5533C56.404 13.4021 56.8223 13.156 57.2548 12.815C57.6134 12.4845 57.9773 12.1575 58.3464 11.834L58.3886 11.7708C58.3886 11.6618 58.1654 11.5756 57.7189 11.5124C57.4728 11.4596 57.2126 11.4227 56.9384 11.4016C56.7661 11.3735 56.5727 11.2838 56.3582 11.1326C56.1192 10.9885 55.9926 10.8303 55.9785 10.658V10.2467C55.9785 9.56811 56.2827 8.82803 56.8909 8.02642C57.4991 7.22482 58.1197 6.76249 58.7525 6.63944C59.0936 6.78359 59.2641 7.01036 59.2641 7.31975C59.2641 7.45686 59.2272 7.65199 59.1533 7.90513C59.0619 8.17585 58.9476 8.32351 58.8105 8.34812C58.5293 8.05982 58.3447 7.91568 58.2568 7.91568C58.0283 7.91568 57.6767 8.18112 57.202 8.71201C56.7309 9.23938 56.4954 9.62436 56.4954 9.86695C56.4954 9.94781 56.5077 9.99879 56.5323 10.0199C56.7889 10.1922 57.0263 10.2924 57.2442 10.3205C57.9544 10.4224 58.3289 10.4805 58.3675 10.4945C58.8 10.6246 59.0162 10.8988 59.0162 11.3172C59.0162 11.9852 58.7209 12.6444 58.1302 13.2949C57.6099 13.8328 57.0052 14.2424 56.3161 14.5236C55.2332 14.9491 54.0114 15.3059 52.6508 15.5942C51.234 15.8966 49.9788 16.0477 48.8854 16.0477C45.9392 16.0477 43.6205 15.7225 41.9294 15.0721C41.5461 14.8998 41.3071 14.7926 41.2121 14.7504C40.5723 14.318 40.0625 13.9576 39.6828 13.6693C38.9023 13.0013 38.512 12.5776 38.512 12.3983Z" fill="#417F56"/>
<path d="M59.86 3.35391C59.962 2.78084 60.034 2.42222 60.0762 2.27808C60.1711 2.36246 60.2362 2.51364 60.2713 2.73162C60.3171 2.83006 60.3505 2.98827 60.3715 3.20625C60.7302 5.83256 60.913 7.20373 60.92 7.31975C61.022 8.00533 61.1011 8.39383 61.1573 8.48524C61.3155 8.78057 61.6179 8.92823 62.0644 8.92823V10.0199C61.4316 10.0199 61.0466 9.89684 60.9095 9.65073C60.8005 9.49955 60.6897 9.155 60.5772 8.61708C60.5456 8.37801 60.4946 8.00709 60.4243 7.50433C60.1711 5.37375 59.9831 3.99028 59.86 3.35391Z" fill="#417F56"/>
<path d="M61.8587 8.92823C62.1435 8.92823 62.4635 8.88252 62.8186 8.79111C63.244 8.68916 63.5428 8.57313 63.7151 8.44305C63.5287 8.03873 63.4356 7.81196 63.4356 7.76274C63.4356 7.60453 63.5076 7.41292 63.6518 7.1879C63.803 6.92422 63.8926 6.7414 63.9208 6.63944C63.8188 6.57615 63.7678 6.46365 63.7678 6.30192C63.7678 6.13668 63.8188 5.95034 63.9208 5.74291C64.0192 5.4968 64.137 5.37375 64.2741 5.37375C64.7065 5.37375 65.2075 5.70599 65.7771 6.37048C66.2306 6.8873 66.468 7.15978 66.4891 7.1879C66.7844 7.58519 66.932 7.92447 66.932 8.20573C66.932 8.33582 66.7984 8.61708 66.5312 9.04953C66.4539 9.14797 66.3133 9.19719 66.1093 9.19719C65.4202 9.19719 64.9034 9.11105 64.5589 8.93878C64.1475 9.16379 63.7397 9.38704 63.3354 9.60854C62.7588 9.88277 62.2982 10.0199 61.9537 10.0199H61.8587V8.92823ZM65.0757 8.23737C65.7156 8.40262 66.1006 8.48524 66.2306 8.48524C66.3256 8.48524 66.373 8.45008 66.373 8.37976C66.373 8.23562 66.2095 7.9983 65.8826 7.66781C65.647 7.41467 65.4132 7.21251 65.1812 7.06134C65.2409 7.44807 65.2058 7.84009 65.0757 8.23737ZM63.7678 7.78383C63.7678 7.8647 63.7819 7.90865 63.81 7.91568C64.028 8.03521 64.2477 8.08092 64.4692 8.05279C64.7083 7.89458 64.8278 7.72934 64.8278 7.55706C64.8278 7.41292 64.7909 7.2758 64.7171 7.14571C64.6397 7.02266 64.5395 6.96113 64.4165 6.96113C64.3075 6.96113 64.1721 7.07012 64.0104 7.2881C63.8487 7.50257 63.7678 7.66781 63.7678 7.78383Z" fill="#417F56"/>
<path d="M53.136 12.2032C53.136 12.1505 53.1764 12.1241 53.2573 12.1241C53.3593 12.1241 53.579 12.2155 53.9165 12.3983C55.7799 13.3406 57.3778 13.9734 58.7103 14.2969C60.194 14.6414 61.8869 14.8137 63.7889 14.8137C66.7105 14.8137 69.0204 14.543 70.7186 14.0015C72.4202 13.4636 73.7105 12.4458 74.5895 10.9481C74.5895 10.4805 74.4418 9.96188 74.1465 9.39232C73.8512 8.82276 73.7035 8.50633 73.7035 8.44305C73.7035 8.30593 73.7967 8.00006 73.983 7.52542C73.9689 7.36721 74.0006 7.2881 74.0779 7.2881C74.2221 7.2881 74.4418 7.67309 74.7371 8.44305C75.0395 9.17785 75.1907 9.67182 75.1907 9.92496C75.3137 10.9024 74.8918 11.9378 73.925 13.0312C72.9617 14.1281 71.4182 14.9385 69.2947 15.4624C67.4383 15.8245 65.6417 16.0056 63.9049 16.0056C62.5232 16.0056 61.2136 15.937 59.976 15.7999C58.313 15.5749 57.0667 15.2461 56.237 14.8137C55.7483 14.5711 55.2086 14.2072 54.6179 13.722C54.3507 13.4794 54.0765 13.2492 53.7952 13.0312C53.3558 12.6374 53.136 12.3614 53.136 12.2032ZM71.8208 4.82001C71.8208 4.74969 71.8981 4.60203 72.0528 4.37701C72.2075 4.14849 72.306 4.03422 72.3482 4.03422C72.4079 4.03422 72.5556 4.09575 72.7911 4.2188C73.0443 4.36295 73.1709 4.48073 73.1709 4.57214C73.1709 4.63894 73.0988 4.77957 72.9546 4.99404C72.8245 5.24015 72.712 5.3632 72.6171 5.3632C72.5327 5.3632 72.378 5.29288 72.153 5.15225C71.9315 5.01162 71.8208 4.90087 71.8208 4.82001Z" fill="#417F56"/>
<path d="M76.0028 3.43302C76.0907 2.86346 76.2314 2.49957 76.4247 2.34136C76.4564 2.37652 76.4827 2.40113 76.5038 2.41519C76.5952 2.90389 76.7042 3.69495 76.8308 4.78836C76.9574 5.87827 77.0629 6.85918 77.1472 7.7311C77.2351 8.60302 77.2791 9.06359 77.2791 9.11281C77.2791 9.21477 77.2527 9.3765 77.2 9.59799C77.1507 9.81597 77.047 9.96364 76.8888 10.041C76.7763 9.14797 76.6638 8.26023 76.5513 7.37776C76.4423 6.49529 76.3228 5.62688 76.1927 4.77254C76.0661 3.91469 76.0028 3.46818 76.0028 3.43302Z" fill="#417F56"/>
<path d="M76.9574 12.2243C77.9207 12.1645 78.4885 12.1136 78.6608 12.0714C79.1706 11.9132 79.6681 11.5985 80.1533 11.1274C80.642 10.6562 80.9724 10.1605 81.1447 9.64018C80.9795 9.35189 80.8213 9.06886 80.6701 8.79111C80.424 8.32703 80.3009 8.02291 80.3009 7.87876L80.3378 7.76274C80.3519 7.73461 80.3976 7.61859 80.4749 7.41467C80.5347 7.23537 80.5927 7.14571 80.649 7.14571C80.8142 7.14571 81.0093 7.38655 81.2344 7.86821C81.4629 8.28659 81.5771 8.60126 81.5771 8.81221C81.5771 10.215 81.1517 11.3453 80.3009 12.2032C79.9001 12.5899 79.487 12.7833 79.0616 12.7833C78.8085 12.7833 78.1668 12.6937 77.1367 12.5144C77.1086 12.4933 77.0488 12.4282 76.9574 12.3192V12.2243Z" fill="#417F56"/>
<path d="M81.5508 12.1346C81.5789 12.1136 81.6316 12.103 81.709 12.103H82.2416C82.9905 12.103 83.4985 12.0678 83.7657 11.9975C84.1173 11.8815 84.548 11.6073 85.0578 11.1748C85.5922 10.7354 85.9209 10.3504 86.044 10.0199C85.4463 10.0199 85.049 9.97946 84.8521 9.89859C84.4935 9.77906 84.3142 9.47318 84.3142 8.98097C84.3142 8.67158 84.4302 8.32351 84.6623 7.93677C84.9119 7.50433 85.1633 7.2881 85.4164 7.2881C85.6028 7.2881 85.8155 7.51487 86.0545 7.96841C86.276 8.31999 86.4237 8.63993 86.4975 8.92823H86.777V10.0199H86.3868C86.3376 10.5086 86.0616 11.0553 85.5588 11.66C85.0455 12.2296 84.5515 12.6005 84.0769 12.7728C83.6515 12.7025 83.1645 12.6163 82.6161 12.5144C81.9059 12.3561 81.5508 12.2296 81.5508 12.1346ZM84.8785 8.72256C85.0437 8.85967 85.2301 8.92823 85.4375 8.92823C85.4727 8.92823 85.5166 8.9212 85.5694 8.90714C85.5694 8.79814 85.543 8.69091 85.4902 8.58544C85.4129 8.44129 85.3268 8.36922 85.2318 8.36922C85.0596 8.36922 84.9418 8.487 84.8785 8.72256Z" fill="#417F56"/>
<path d="M86.5925 8.92823C86.7718 8.93526 87.0337 8.86319 87.3782 8.71201C87.7228 8.56083 87.9285 8.48524 87.9953 8.48524C88.1253 8.48524 88.3504 8.55907 88.6703 8.70673C88.9902 8.8544 89.2469 8.92823 89.4403 8.92823V10.0199C89.2188 10.0199 88.9516 9.93903 88.6387 9.7773C88.3258 9.61557 88.1113 9.53471 87.9953 9.53471C87.9425 9.53471 87.7615 9.61557 87.4521 9.7773C87.1427 9.93903 86.8878 10.0199 86.6874 10.0199H86.5925V8.92823ZM87.8581 5.90639C88.0234 5.42473 88.1746 5.15928 88.3117 5.11006C88.4347 5.17335 88.5683 5.25245 88.7125 5.34738C88.8637 5.47043 88.9674 5.58118 89.0236 5.67962C88.9146 6.23512 88.7599 6.51287 88.5595 6.51287C88.4857 6.51287 88.3521 6.43728 88.1587 6.2861C88.0076 6.12789 87.9074 6.00132 87.8581 5.90639ZM86.5925 6.39157C86.5925 6.22633 86.7225 5.95737 86.9827 5.5847C87.38 5.85893 87.6349 6.0523 87.7474 6.1648V6.20172C87.7474 6.32829 87.7122 6.48298 87.6419 6.66581C87.5611 6.85918 87.4819 6.95586 87.4046 6.95586C87.3167 6.95586 87.1585 6.88203 86.93 6.73436C86.705 6.5867 86.5925 6.47244 86.5925 6.39157Z" fill="#417F56"/>
<path d="M89.2029 8.92823C89.7022 8.92823 90.1786 8.87022 90.6321 8.7542C91.3072 8.59599 91.6992 8.36922 91.8082 8.07389C91.9172 7.77856 92.0173 7.59574 92.1088 7.52542C92.1404 7.54652 92.1562 7.59398 92.1562 7.66781C92.1562 7.89634 92.0912 8.20222 91.9611 8.58544C92.0595 8.6206 92.1457 8.63818 92.2195 8.63818C92.9543 8.63818 93.4659 8.52919 93.7542 8.31121C93.9335 8.16706 94.0706 7.92974 94.1655 7.59925C94.2569 7.28283 94.3993 7.08595 94.5927 7.0086L94.619 7.05079C94.6331 7.07188 94.6401 7.09649 94.6401 7.12462C94.6401 7.23361 94.5927 7.4973 94.4977 7.91568C94.5997 8.07389 94.7034 8.17057 94.8089 8.20573C94.8405 8.21276 94.9952 8.24792 95.273 8.31121L95.5472 8.20573C95.5472 8.1319 95.5314 8.05279 95.4998 7.96841C95.4716 7.88052 95.4576 7.81899 95.4576 7.78383C95.4576 7.74164 95.505 7.5764 95.6 7.2881C95.723 6.95762 95.7845 6.78183 95.7845 6.76073C95.8619 6.76073 95.941 6.88203 96.0219 7.12462C96.0922 7.31799 96.1273 7.4762 96.1273 7.59925C96.1273 8.02467 96.0517 8.40965 95.9006 8.7542C95.7002 9.20774 95.4119 9.43451 95.0357 9.43451C94.8493 9.43451 94.5329 9.29915 94.0864 9.02843C93.9774 9.29212 93.7225 9.49603 93.3217 9.64018C93.0123 9.74214 92.6836 9.79312 92.3355 9.79312C91.991 9.79312 91.671 9.74214 91.3757 9.64018C90.6936 9.89332 90.0573 10.0199 89.4666 10.0199H89.2029V8.92823Z" fill="#417F56"/>
<path d="M95.9533 12.2243C96.9166 12.1645 97.4844 12.1136 97.6567 12.0714C98.1665 11.9132 98.664 11.5985 99.1492 11.1274C99.6379 10.6562 99.9684 10.1605 100.141 9.64018C99.9754 9.35189 99.8172 9.06886 99.666 8.79111C99.4199 8.32703 99.2968 8.02291 99.2968 7.87876L99.3337 7.76274C99.3478 7.73461 99.3935 7.61859 99.4709 7.41467C99.5306 7.23537 99.5886 7.14571 99.6449 7.14571C99.8101 7.14571 100.005 7.38655 100.23 7.86821C100.459 8.28659 100.573 8.60126 100.573 8.81221C100.573 10.215 100.148 11.3453 99.2968 12.2032C98.896 12.5899 98.4829 12.7833 98.0575 12.7833C97.8044 12.7833 97.1627 12.6937 96.1326 12.5144C96.1045 12.4933 96.0447 12.4282 95.9533 12.3192V12.2243Z" fill="#417F56"/>
<path d="M21.8663 39.0521H20.1118C17.8654 39.0521 15.9049 38.3609 14.2301 36.9786C12.6617 35.6893 11.5452 33.9613 10.8806 31.7948C10.5882 30.8378 9.94352 30.3593 8.94663 30.3593C8.36179 30.3593 7.86335 30.5586 7.4513 30.9574C7.05254 31.3428 6.85317 31.8214 6.85317 32.3929C6.85317 32.9645 7.05254 33.4562 7.4513 33.8683C7.86335 34.267 8.36179 34.4664 8.94663 34.4664H12.1566V39.0521H9.16595C7.30509 39.0521 5.69678 38.4207 4.34101 37.158C2.99853 35.8953 2.3273 34.3069 2.3273 32.3929C2.3273 30.5719 2.97195 29.0168 4.26126 27.7275C5.55057 26.4382 7.11236 25.7935 8.94663 25.7935C10.3689 25.7935 11.6715 26.2321 12.8544 27.1094C14.0374 27.9734 14.8482 29.0899 15.2868 30.4589C16.1109 33.1306 17.7192 34.4664 20.1118 34.4664H21.8663V39.0521Z" fill="#417F56"/>
<path d="M30.5592 22.105H28.2862C27.6615 22.105 27.1232 21.8857 26.6713 21.4471C26.2194 20.9952 25.9934 20.4568 25.9934 19.8321C25.9934 19.2074 26.2194 18.6691 26.6713 18.2172C27.1232 17.7652 27.6615 17.5393 28.2862 17.5393C28.911 17.5393 29.4426 17.7652 29.8813 18.2172C30.3332 18.6691 30.5592 19.2074 30.5592 19.8321V22.105ZM38.4146 39.0521H36.6402C34.7926 39.0521 33.0912 38.4872 31.5361 37.3574V39.0521H20.1118V34.4664H26.9704V25.9331H31.5361V28.7842C31.5361 30.4191 32.008 31.7748 32.9517 32.8515C33.8954 33.9281 35.1249 34.4664 36.6402 34.4664H38.4146V39.0521Z" fill="#417F56"/>
<path d="M54.8035 39.0521H53.029C51.1814 39.0521 49.4801 38.4872 47.9249 37.3574V39.0521H36.5006V34.4664H43.3592V25.9331H47.9249V28.7842C47.9249 30.4191 48.3968 31.7748 49.3405 32.8515C50.2842 33.9281 51.5137 34.4664 53.029 34.4664H54.8035V39.0521ZM51.0552 47.1668H48.7424C48.1177 47.1668 47.5793 46.9408 47.1274 46.4889C46.6888 46.037 46.4695 45.4986 46.4695 44.8739C46.4695 44.2359 46.6888 43.6976 47.1274 43.259C47.5793 42.8203 48.1177 42.601 48.7424 42.601C49.3804 42.601 49.9254 42.8203 50.3773 43.259C50.8292 43.6976 51.0552 44.2359 51.0552 44.8739V47.1668ZM45.8713 47.1668H43.5785C42.9405 47.1668 42.3955 46.9408 41.9436 46.4889C41.505 46.037 41.2857 45.4986 41.2857 44.8739C41.2857 44.2359 41.505 43.6976 41.9436 43.259C42.3955 42.8203 42.9405 42.601 43.5785 42.601C44.2032 42.601 44.7415 42.8203 45.1935 43.259C45.6454 43.6976 45.8713 44.2359 45.8713 44.8739V47.1668Z" fill="#417F56"/>
<path d="M75.5387 39.0521H52.8894V34.4664H70.7138C70.3283 33.2967 69.6371 32.3397 68.6403 31.5954C67.6567 30.851 66.5269 30.4789 65.2508 30.4789L58.4521 30.4988V25.9331H65.2508C68.082 25.9331 70.5011 26.9366 72.5082 28.9437C74.5285 30.9374 75.5387 33.3566 75.5387 36.201V39.0521ZM63.8552 23.5804H61.5823C60.9576 23.5804 60.4193 23.3611 59.9673 22.9225C59.5154 22.4705 59.2895 21.9322 59.2895 21.3075C59.2895 20.6828 59.5154 20.1445 59.9673 19.6926C60.4193 19.2406 60.9576 19.0147 61.5823 19.0147C62.207 19.0147 62.7387 19.2406 63.1773 19.6926C63.6292 20.1445 63.8552 20.6828 63.8552 21.3075V23.5804Z" fill="#417F56"/>
<path d="M89.9827 39.0521H88.2082C86.374 39.0521 84.6726 38.4872 83.1042 37.3574V38.454C83.1042 41.325 82.0674 43.7508 79.9939 45.7313C77.9337 47.725 75.355 48.7219 72.258 48.7219V44.1562C74.1056 44.1562 75.6142 43.6046 76.7839 42.5013C77.9669 41.3981 78.5584 40.049 78.5584 38.454V25.9331H83.1042V28.7842C83.1042 30.4191 83.576 31.7748 84.5198 32.8515C85.4768 33.9281 86.7063 34.4664 88.2082 34.4664H89.9827V39.0521Z" fill="#417F56"/>
<path d="M99.6326 39.0521H88.2082V34.4664H95.0668V25.9331H99.6326V39.0521ZM99.832 21.786H97.5192C96.8945 21.786 96.3561 21.5601 95.9042 21.1081C95.4656 20.6562 95.2463 20.1179 95.2463 19.4932C95.2463 18.8552 95.4656 18.3168 95.9042 17.8782C96.3561 17.4396 96.8945 17.2203 97.5192 17.2203C98.1572 17.2203 98.7022 17.4396 99.1541 17.8782C99.606 18.3168 99.832 18.8552 99.832 19.4932V21.786ZM94.6481 21.786H92.3553C91.7173 21.786 91.1723 21.5601 90.7204 21.1081C90.2818 20.6562 90.0625 20.1179 90.0625 19.4932C90.0625 18.8552 90.2818 18.3168 90.7204 17.8782C91.1723 17.4396 91.7173 17.2203 92.3553 17.2203C92.98 17.2203 93.5183 17.4396 93.9703 17.8782C94.4222 18.3168 94.6481 18.8552 94.6481 19.4932V21.786Z" fill="#417F56"/>
<path d="M124.043 30.7183C122.697 30.147 121.351 29.7288 120.126 28.78C121.229 28.7187 122.069 29.239 123.001 29.4533C121.675 28.3617 120.257 27.3925 119.225 25.9744C120.318 26.6987 121.411 27.4129 122.505 28.1372C122.535 28.1066 122.565 28.0862 122.586 28.0556C121.847 27.2803 121.118 26.5151 120.379 25.7397C120.409 25.6887 120.44 25.6377 120.47 25.5867C120.774 25.7499 121.128 25.852 121.371 26.0866C122.353 27.015 123.294 27.9842 124.246 28.9432C124.499 29.1982 124.721 29.4635 125.005 29.7696C125.207 29.5757 125.359 29.4125 125.521 29.2799C125.805 29.0656 125.754 28.8616 125.582 28.5963C124.317 26.6783 122.636 25.1888 120.683 24.0564C119.184 23.1892 117.565 22.5363 116.006 21.7814C115.338 21.4549 114.68 21.108 114.012 20.7714C114.042 20.6897 114.062 20.6081 114.093 20.5265C114.589 20.6285 115.095 20.7203 115.702 20.8428C114.741 20.0164 113.658 19.4757 113.05 18.4249C113.081 18.3841 113.101 18.3331 113.131 18.2923C114.346 19.0472 115.55 19.8022 116.897 20.6387C115.996 19.4043 115.186 18.3025 114.386 17.2006C114.427 17.1598 114.467 17.119 114.518 17.0782C114.933 17.4863 115.368 17.8638 115.753 18.2923C116.785 19.4553 117.757 20.6795 118.83 21.7916C119.326 22.3017 120.004 22.6281 120.591 23.0464C121.391 23.6075 122.181 24.1788 123.051 24.8012C122.99 24.6175 122.97 24.4951 122.909 24.4033C121.239 21.5671 119.407 18.833 117.079 16.4865C116.674 16.0784 116.127 15.7826 115.601 15.5377C114.7 15.1296 113.749 14.8236 112.827 14.4665C112.271 14.2523 111.724 14.0074 111.339 13.5177C111.36 13.4565 111.38 13.4055 111.4 13.3443C112.2 13.5483 113.01 13.7626 113.809 13.9666C112.24 12.5383 110.53 11.2529 109.477 9.33487C110.904 10.5183 112.331 11.7017 113.749 12.8954C113.789 12.8648 113.83 12.824 113.86 12.7934C113.091 11.6915 112.321 10.5795 111.562 9.4777C111.613 9.42669 111.663 9.37568 111.714 9.32467C111.957 9.52871 112.24 9.70214 112.433 9.94699C113.263 11.0284 114.022 12.1812 114.903 13.232C115.652 14.1196 116.542 14.895 117.322 15.752C118.041 16.5375 118.699 17.3741 119.377 18.1902C119.478 18.3127 119.589 18.4453 119.691 18.5677C119.731 18.5473 119.772 18.5269 119.822 18.4963C119.691 18.1902 119.559 17.874 119.417 17.5781C118.749 16.1804 118.162 14.7215 117.372 13.3953C116.299 11.5997 114.984 9.9776 113.293 8.71255C112.858 8.38608 112.301 8.24325 111.785 8.02901C111.016 7.70254 110.185 7.4883 109.558 6.77416C110.469 6.55992 111.198 7.17204 112.159 7.32507C111.319 6.40688 110.084 6.07022 109.679 4.92759C109.72 4.86637 109.75 4.81536 109.791 4.75415C110.185 4.9786 110.59 5.21324 111.056 5.4785C110.692 4.82557 110.358 4.23385 110.034 3.63193C110.064 3.60132 110.094 3.57072 110.125 3.54011C110.337 3.71354 110.58 3.85637 110.742 4.06041C111.785 5.37648 112.787 6.72315 113.84 8.0188C114.761 9.15123 115.733 10.2531 116.755 11.3243C116.391 10.4775 116.057 9.62053 115.652 8.79416C115.146 7.74335 114.771 6.62113 113.921 5.77436C112.767 4.63173 111.633 3.4789 110.499 2.31586C110.175 1.9792 109.902 1.60172 109.669 1.17323C111.036 1.82617 111.967 3.0096 113.06 3.9992C113.101 3.9686 113.141 3.94819 113.182 3.91759C112.564 2.64233 111.947 1.37728 111.319 0.10202C111.37 0.0714143 111.431 0.0306061 111.481 0C112.463 1.46909 113.455 2.93819 114.437 4.40728C114.467 4.39708 114.508 4.38688 114.538 4.37668C114.346 3.32587 114.154 2.28526 113.971 1.23445C114.032 1.21404 114.093 1.19364 114.154 1.18344C114.234 1.39768 114.336 1.60172 114.376 1.82617C114.569 2.77496 114.68 3.74415 114.953 4.66233C115.307 5.82537 115.783 6.94759 116.239 8.06981C116.492 8.70234 116.816 9.31447 117.19 9.92659C117.231 7.9984 116.654 6.10082 116.876 4.17264C116.937 4.16244 116.988 4.15223 117.049 4.13183C117.221 4.59092 117.383 5.05001 117.555 5.5091C117.585 5.5091 117.615 5.5091 117.646 5.5091C117.798 4.67253 117.949 3.82577 118.122 2.90758C118.607 3.25445 118.577 3.64213 118.537 3.9992C118.364 5.4785 118.172 6.95779 117.99 8.42689C117.97 8.56971 117.99 8.71255 118.041 8.86558C118.597 7.93719 118.81 6.83537 119.559 6.03961C119.61 6.04981 119.66 6.07021 119.701 6.08042C119.691 6.23345 119.711 6.39668 119.66 6.52931C119.407 7.30466 119.154 8.06981 118.871 8.83497C118.405 10.0796 118.152 11.3549 118.375 12.6709C118.496 13.3749 118.82 14.0482 119.114 14.7113C119.852 16.4049 120.612 18.0882 121.391 19.7614C121.745 20.5265 122.15 21.2611 122.535 22.016C122.596 22.0058 122.646 21.9854 122.707 21.9752C122.636 21.5671 122.596 21.1488 122.505 20.7407C122.272 19.7614 122.009 18.782 121.766 17.8026C121.533 16.8844 121.28 15.9764 121.087 15.048C120.976 14.4971 120.956 13.9258 120.895 13.3647C120.966 13.3443 121.027 13.3341 121.098 13.3137C121.351 13.9156 121.614 14.5277 121.917 15.2623C122.09 14.2216 122.241 13.3035 122.393 12.3853C122.444 12.3853 122.494 12.3955 122.535 12.3955C122.606 13.6401 122.677 14.895 122.758 16.1396C122.798 16.1498 122.839 16.1498 122.889 16.16C123.244 15.3643 123.335 14.4359 124.155 13.8442C124.094 14.2114 124.053 14.5685 123.972 14.9358C123.679 16.2519 123.284 17.5577 123.092 18.8942C122.99 19.6287 123.203 20.4041 123.314 21.159C123.466 22.1486 123.486 23.2096 123.881 24.087C124.559 25.5867 125.491 26.964 126.351 28.4637C126.604 28.2188 126.746 28.0658 126.908 27.923C127.151 27.7087 127.151 27.5047 127.029 27.2088C126.584 26.1682 126.159 25.1174 125.754 24.0666C125.632 23.7402 125.612 23.3831 125.551 23.0362C125.612 23.0158 125.663 22.9852 125.724 22.9648C126.068 23.6177 126.422 24.2605 126.847 25.0562C126.766 23.4443 126.361 21.9752 126.797 20.4959C127.384 21.4447 127.181 22.5975 127.586 23.73C127.819 22.9036 128.021 22.1894 128.224 21.4549C128.73 21.5977 128.73 21.914 128.659 22.2404C128.467 23.1994 128.244 24.1584 128.052 25.1174C127.971 25.5459 127.94 25.9846 127.9 26.4233C127.89 26.5253 127.971 26.6273 128.031 26.8212C130.269 24.6073 132.455 22.4445 134.642 20.2817C133.518 19.0166 133.143 17.5679 133.508 15.9866C133.649 15.3847 133.963 14.7522 134.378 14.3033C138.286 10.0082 142.233 5.74375 146.171 1.4691C146.212 1.41809 146.272 1.38748 146.323 1.34667C147.001 1.73435 147.092 2.22405 146.606 2.78516C143.63 6.23345 140.644 9.68174 137.678 13.1402C137.476 13.3749 137.203 13.6299 137.526 13.9768C137.8 14.2625 138.336 14.3237 138.64 14.0584C139.065 13.6707 139.46 13.2525 139.865 12.8444C142.729 9.91639 145.604 6.9884 148.469 4.06041C148.59 3.93799 148.681 3.79516 148.783 3.68294C149.542 4.09102 149.643 4.58072 149.127 5.17244C146.181 8.57992 143.236 11.9976 140.3 15.4051C140.057 15.6805 139.672 15.9662 140.108 16.3845C140.421 16.6905 140.968 16.6395 141.332 16.2723C143.013 14.5583 144.683 12.824 146.384 11.1202C148.064 9.44709 149.765 7.80456 151.496 6.12122C152.052 6.40688 152.164 6.93739 151.688 7.4883C148.732 10.906 145.776 14.3339 142.821 17.7618C142.598 18.0168 142.183 18.2719 142.578 18.7003C142.901 19.0574 143.438 19.037 143.843 18.6391C145.108 17.3639 146.363 16.0784 147.619 14.793C149.592 12.773 151.566 10.7427 153.55 8.72274C153.672 8.60032 153.793 8.4983 154.026 8.27386C154.229 8.68194 154.401 9.02881 154.573 9.38588C153.388 10.6713 152.234 11.9364 151.08 13.1912C148.337 16.1702 145.564 19.1186 142.871 22.1384C141.221 23.9952 138.65 24.036 137.081 22.4853C137.03 22.4343 136.98 22.4037 136.889 22.3323C136.727 22.5261 136.555 22.7097 136.403 22.9036C134.945 24.6481 133.488 26.3927 132.03 28.1168C131.807 28.3821 131.746 28.6065 131.868 28.9432C132.111 29.6471 132.293 30.3715 132.516 31.0856C132.556 31.2284 132.637 31.3611 132.749 31.4937C132.911 30.3307 132.475 29.137 133.022 27.8822C133.164 28.3719 133.326 28.7494 133.376 29.137C133.508 30.2491 133.558 31.3611 133.71 32.4731C133.913 33.9524 134.206 35.4215 135.077 36.6865C135.856 37.8292 136.595 39.0126 137.425 40.1246C137.779 40.6041 138.286 40.9816 138.751 41.3693C139.844 42.2773 140.948 43.1648 142.051 44.0626C142.152 44.1442 142.264 44.1952 142.416 44.2871C141.312 42.9608 140.199 41.7161 139.187 40.3899C138.174 39.0738 137.041 37.8394 136.342 36.3091C136.393 36.2683 136.453 36.2172 136.504 36.1764C137.213 37.0232 137.921 37.8598 138.711 38.7882C138.144 37.4109 137.628 36.1458 137.111 34.8706C137.172 34.84 137.233 34.8196 137.294 34.789C138.103 36.3499 138.761 38.0026 139.895 39.3799C139.713 38.1862 139.531 37.0028 139.348 35.8092C140.047 36.3193 140.087 37.064 140.249 37.7476C140.421 38.5025 140.563 39.2677 140.705 40.0328C140.917 41.155 141.332 42.165 142.163 42.9914C143.266 44.1034 144.248 45.3787 145.452 46.3683C146.687 47.3783 148.104 48.1638 149.481 48.9902C150.554 49.6227 151.688 50.1634 152.791 50.7347C152.892 50.7858 152.984 50.8572 153.024 51C152.336 50.7143 151.607 50.4797 150.949 50.1328C149.157 49.1738 147.406 48.123 145.604 47.1742C143.893 46.2765 142.173 45.3481 140.371 44.6543C139.379 44.2769 138.215 44.3483 137.132 44.2565C136.342 44.185 135.553 44.1952 134.763 44.1238C134.49 44.1034 134.226 43.9606 133.963 43.7872C134.834 43.2771 135.765 43.5729 136.676 43.4097C135.391 43.0118 134.115 42.6139 132.83 42.216C132.84 42.1548 132.85 42.1038 132.87 42.0426C133.346 41.7672 133.842 41.8998 134.338 42.012C134.814 42.114 135.289 42.2467 135.795 42.2569C134.601 41.5223 133.407 40.7776 132.212 40.043C133.457 40.1654 134.51 40.7469 135.573 41.2979C136.808 41.9508 138.012 42.6751 139.247 43.3383C139.774 43.6137 140.34 43.8178 140.887 44.0524C140.917 44.0116 140.938 43.9708 140.968 43.93C140.594 43.6137 140.219 43.3077 139.844 42.9812C137.425 40.8592 134.662 39.2779 131.777 37.921C131.058 37.5843 130.177 37.5843 129.368 37.4109C128.578 37.2477 127.789 37.0946 127.009 36.9008C126.766 36.8396 126.543 36.6661 126.23 36.5029C127.009 36.0336 127.718 36.4927 128.548 36.4111C127.687 35.9622 126.938 35.5847 126.159 35.1868C125.379 36.1152 124.61 37.0334 123.841 37.9516C120.541 41.91 117.241 45.8582 113.941 49.8166C113.121 50.796 112.078 51.1326 110.854 50.8062C109.609 50.4695 108.91 49.6023 108.657 48.3373C108.394 47.0314 108.748 45.9704 109.71 45.0216C114.376 40.4409 119.012 35.8398 123.659 31.2386C123.729 31.055 123.861 30.902 124.043 30.7183ZM131.423 28.7698C130.775 29.5349 130.188 30.2082 129.631 30.9122C129.54 31.0244 129.54 31.2999 129.611 31.4427C130.329 32.9118 131.271 34.2278 132.404 35.4011C132.708 35.7173 132.971 36.0744 133.265 36.3907C133.629 36.7886 134.024 37.1558 134.409 37.5435C134.469 37.4925 134.53 37.4517 134.591 37.4007C134.065 36.4723 133.538 35.5337 133.002 34.6053C132.263 33.3199 131.504 32.0344 130.785 30.7387C130.653 30.5041 130.663 30.1776 130.603 29.892C130.673 29.8614 130.744 29.8308 130.815 29.8002C131.261 30.5245 131.716 31.2488 132.161 31.963C132.202 31.9426 132.232 31.9324 132.273 31.912C132.01 30.9122 131.726 29.892 131.423 28.7698ZM127.293 33.7075C129.246 35.8806 131.736 37.0844 134.247 38.2781C132.212 36.4315 130.522 34.1972 128.031 32.8098C127.789 33.1158 127.546 33.4117 127.293 33.7075Z" fill="#417F56"/>
</svg>
