<?xml version="1.0" encoding="utf-8"?>
<!-- Generator: Adobe Illustrator 27.9.0, SVG Export Plug-In . SVG Version: 6.00 Build 0)  -->
<svg version="1.1" id="Layer_1" xmlns="http://www.w3.org/2000/svg" xmlns:xlink="http://www.w3.org/1999/xlink" x="0px" y="0px"
	 viewBox="0 0 24 24" style="enable-background:new 0 0 24 24;" xml:space="preserve">
<style type="text/css">
	.st0{fill:#FFFFFF;}
</style>
<path class="st0" d="M16.4,22.8H3.2c-1,0-1.8-0.4-2.4-1.2c-0.6-0.8-0.8-1.8-0.5-2.7L4.6,5.3C5,4.1,6.1,3.2,7.4,3.2h12.3
	C21,3.2,22,3.9,22.5,5c0.2,0.6,0.3,1.2,0.1,1.9l-3.4,13.5C19,21.8,17.8,22.8,16.4,22.8z M7.5,4.7C6.8,4.7,6.2,5.1,6,5.8L1.8,19.3
	c-0.1,0.5-0.1,1,0.2,1.4c0.3,0.4,0.7,0.6,1.2,0.6h13.1c0.7,0,1.3-0.5,1.5-1.1l3.4-13.5c0.1-0.3,0.1-0.7-0.1-0.9
	c-0.2-0.6-0.8-0.9-1.4-0.9L7.5,4.7C7.5,4.7,7.5,4.7,7.5,4.7z"/>
<path class="st0" d="M20.8,22.8H16c-0.4,0-0.8-0.3-0.8-0.8s0.3-0.8,0.8-0.8h4.8c0.4,0,0.8-0.2,1.1-0.5c0.3-0.3,0.4-0.7,0.4-1.1
	l-1-13.6c0-0.4,0.3-0.8,0.7-0.8c0.4,0,0.8,0.3,0.8,0.7l1,13.6c0.1,0.8-0.2,1.6-0.8,2.2C22.4,22.4,21.6,22.8,20.8,22.8z M9.7,7.1
	c-0.1,0-0.1,0-0.2,0C9.1,7,8.9,6.6,8.9,6.2l1-4.3c0.1-0.4,0.5-0.6,0.9-0.5s0.6,0.5,0.6,0.9l-1,4.3C10.3,6.9,10,7.1,9.7,7.1z
	 M16.4,7.1c0,0-0.1,0-0.2,0c-0.4-0.1-0.7-0.5-0.6-0.9l0.9-4.3c0.1-0.4,0.5-0.7,0.9-0.6c0.4,0.1,0.7,0.5,0.6,0.9l-0.9,4.3
	C17,6.9,16.7,7.1,16.4,7.1z M15.7,12.8h-8c-0.4,0-0.8-0.3-0.8-0.8s0.3-0.8,0.8-0.8h8c0.4,0,0.8,0.3,0.8,0.8S16.1,12.8,15.7,12.8z
	 M14.7,16.8h-8c-0.4,0-0.8-0.3-0.8-0.8s0.3-0.8,0.8-0.8h8c0.4,0,0.8,0.3,0.8,0.8S15.1,16.8,14.7,16.8z"/>
</svg>
