<svg width="41" height="40" viewBox="0 0 41 40" fill="none" xmlns="http://www.w3.org/2000/svg">
<rect x="0.5" width="40" height="40" rx="4" fill="#E5F2E9"/>
<path d="M20 29.75C14.35 29.75 9.75 25.15 9.75 19.5C9.75 13.85 14.35 9.25 20 9.25C25.65 9.25 30.25 13.85 30.25 19.5C30.25 25.15 25.65 29.75 20 29.75ZM20 10.75C15.17 10.75 11.25 14.68 11.25 19.5C11.25 24.32 15.17 28.25 20 28.25C24.83 28.25 28.75 24.32 28.75 19.5C28.75 14.68 24.83 10.75 20 10.75Z" fill="#417F56"/>
<path d="M30.5004 30.75C30.3104 30.75 30.1204 30.68 29.9704 30.53L27.9704 28.53C27.6804 28.24 27.6804 27.76 27.9704 27.47C28.2604 27.18 28.7404 27.18 29.0304 27.47L31.0304 29.47C31.3204 29.76 31.3204 30.24 31.0304 30.53C30.8804 30.68 30.6904 30.75 30.5004 30.75Z" fill="#417F56"/>
</svg>
