  <svg xmlns="http://www.w3.org/2000/svg" width="16" height="16" fill="none">
    <path
      fill="#EDEDED"
      d="M14.2 1.915c-.156.007-.307.05-.444.105-.136.055-.915.388-2.066.88-1.152.492-2.648 1.133-4.132 1.769C4.591 5.939 1.676 7.19 1.676 7.19l.021-.008s-.176.06-.354.183a.985.985 0 0 0-.264.26.686.686 0 0 0-.114.458c.076.616.714.79.714.79l.002.002 2.85.975c.072.242.863 2.884 1.037 3.443.096.31.186.488.28.61.047.06.097.107.15.142a.42.42 0 0 0 .068.033h.001l.008.003-.007-.002.015.007c.01.004.017.004.03.006.326.114.596-.097.596-.097l.011-.009 1.75-1.623 2.84 2.214.036.017c.497.22.947.097 1.195-.105a1.22 1.22 0 0 0 .347-.464l.01-.028L14.987 3.12c.053-.243.06-.453.01-.643a.748.748 0 0 0-.326-.447.828.828 0 0 0-.47-.115Zm.017.651a.293.293 0 0 1 .125.013c.015.01.021.008.036.061a.786.786 0 0 1-.017.344l-.001.003-2.075 10.814c-.005.011-.049.111-.147.191-.101.082-.213.146-.51.022l-3.106-2.422-.087-.069-.002.002-.93-.697 5.22-6.14a.32.32 0 0 0-.42-.474L4.75 9.249l-2.854-.977s-.283-.158-.296-.268c-.001-.006-.005 0 .01-.022a.42.42 0 0 1 .098-.092c.093-.064.2-.103.2-.103l.01-.004.01-.004 5.883-2.522c1.483-.636 2.98-1.276 4.13-1.768 1.151-.492 1.982-.846 2.053-.875a.698.698 0 0 1 .223-.048Zm-3.461 3.448L6.798 10.67l-.002.001a.304.304 0 0 0-.035.05.32.32 0 0 0-.042.123v.003l-.516 2.319c-.008-.025-.014-.034-.023-.064-.164-.527-.91-3.018-1.014-3.363l5.59-3.726Zm-3.511 5.42.71.533-1.044.97.334-1.503Z"
    />
  </svg>