  <svg xmlns="http://www.w3.org/2000/svg" width="16" height="16" fill="none">
    <g clipPath="url(#a)">
      <path
        fill="#EDEDED"
        d="M10.95 1.75a3.473 3.473 0 0 0-3.47 3.47c0 .115.028.228.04.34-2.367-.226-4.46-1.366-5.88-3.11a.322.322 0 0 0-.53.04 3.443 3.443 0 0 0-.47 1.74c0 .769.275 1.472.7 2.05-.083-.036-.173-.056-.25-.1a.319.319 0 0 0-.47.28v.04c0 1.179.61 2.203 1.51 2.83-.01-.001-.02.002-.03 0a.32.32 0 0 0-.36.41 3.477 3.477 0 0 0 2.4 2.27 5.979 5.979 0 0 1-3.78.81.32.32 0 0 0-.21.59 9.23 9.23 0 0 0 5 1.47c2.986 0 5.328-1.248 6.9-3.03 1.57-1.782 2.39-4.097 2.39-6.26 0-.091-.008-.18-.01-.27a6.701 6.701 0 0 0 1.52-1.59.32.32 0 0 0-.4-.47c-.165.074-.358.081-.53.14.227-.304.422-.631.54-1a.32.32 0 0 0-.47-.37 5.995 5.995 0 0 1-1.79.69c-.62-.58-1.437-.97-2.35-.97Zm0 .64c.816 0 1.553.349 2.07.9.077.08.19.114.3.09a6.585 6.585 0 0 0 1.2-.36c-.223.3-.498.556-.82.75a.32.32 0 0 0 .21.6c.32-.039.605-.169.91-.25a6.073 6.073 0 0 1-.9.8.319.319 0 0 0-.13.28c.005.13.01.259.01.39 0 2-.768 4.171-2.23 5.83-1.463 1.659-3.61 2.82-6.42 2.82a8.558 8.558 0 0 1-3.57-.78c1.35-.104 2.595-.581 3.6-1.37a.32.32 0 0 0-.19-.57c-1.055-.019-1.94-.633-2.41-1.5h.05c.316 0 .628-.04.92-.12a.32.32 0 0 0-.02-.62c-1.14-.23-1.993-1.157-2.19-2.31.322.111.652.199 1.01.21a.32.32 0 0 0 .19-.59 2.833 2.833 0 0 1-1.26-2.36c0-.365.095-.7.22-1.02 1.6 1.756 3.84 2.923 6.37 3.05a.32.32 0 0 0 .33-.39 2.856 2.856 0 0 1-.08-.65 2.824 2.824 0 0 1 2.83-2.83Z"
      />
    </g>
    <defs>
      <clipPath id="a">
        <path fill="#EDEDED" d="M0 0h16v16H0z" />
      </clipPath>
    </defs>
  </svg>