<svg width="41" height="40" viewBox="0 0 41 40" fill="none" xmlns="http://www.w3.org/2000/svg">
<rect x="0.5" width="40" height="40" rx="4" fill="#E5F2E9"/>
<path d="M20.5 20.75C17.33 20.75 14.75 18.17 14.75 15C14.75 11.83 17.33 9.25 20.5 9.25C23.67 9.25 26.25 11.83 26.25 15C26.25 18.17 23.67 20.75 20.5 20.75ZM20.5 10.75C18.16 10.75 16.25 12.66 16.25 15C16.25 17.34 18.16 19.25 20.5 19.25C22.84 19.25 24.75 17.34 24.75 15C24.75 12.66 22.84 10.75 20.5 10.75Z" fill="#417F56"/>
<path d="M29.0901 30.75C28.6801 30.75 28.3401 30.41 28.3401 30C28.3401 26.55 24.8202 23.75 20.5002 23.75C16.1802 23.75 12.6602 26.55 12.6602 30C12.6602 30.41 12.3202 30.75 11.9102 30.75C11.5002 30.75 11.1602 30.41 11.1602 30C11.1602 25.73 15.3502 22.25 20.5002 22.25C25.6502 22.25 29.8401 25.73 29.8401 30C29.8401 30.41 29.5001 30.75 29.0901 30.75Z" fill="#417F56"/>
</svg>
