<?xml version="1.0" encoding="utf-8"?>
<!-- Generator: Adobe Illustrator 27.9.0, SVG Export Plug-In . SVG Version: 6.00 Build 0)  -->
<svg version="1.1" id="Layer_1" xmlns="http://www.w3.org/2000/svg" xmlns:xlink="http://www.w3.org/1999/xlink" x="0px" y="0px"
	 viewBox="0 0 24 24" style="enable-background:new 0 0 24 24;" xml:space="preserve">
<style type="text/css">
	.st0{fill:#FFFFFF;}
</style>
<path class="st0" d="M12,12.8c-3.2,0-5.8-2.6-5.8-5.8S8.8,1.2,12,1.2s5.8,2.6,5.8,5.8S15.2,12.8,12,12.8z M12,2.8
	C9.7,2.8,7.8,4.7,7.8,7c0,2.3,1.9,4.2,4.2,4.2c2.3,0,4.2-1.9,4.2-4.2C16.2,4.7,14.3,2.8,12,2.8z M20.6,22.8c-0.4,0-0.8-0.3-0.8-0.8
	c0-3.5-3.5-6.2-7.8-6.2S4.2,18.5,4.2,22c0,0.4-0.3,0.8-0.8,0.8S2.7,22.4,2.7,22c0-4.3,4.2-7.8,9.3-7.8s9.3,3.5,9.3,7.8
	C21.3,22.4,21,22.8,20.6,22.8z"/>
</svg>
