<svg width="24" height="24" viewBox="0 0 24 24" fill="none" xmlns="http://www.w3.org/2000/svg">
<rect width="24" height="24" rx="4" fill="#E5F2E9"/>
<path d="M11.9998 12.5C9.8865 12.5 8.1665 10.78 8.1665 8.66668C8.1665 6.55334 9.8865 4.83334 11.9998 4.83334C14.1132 4.83334 15.8332 6.55334 15.8332 8.66668C15.8332 10.78 14.1132 12.5 11.9998 12.5ZM11.9998 5.83334C10.4398 5.83334 9.1665 7.10668 9.1665 8.66668C9.1665 10.2267 10.4398 11.5 11.9998 11.5C13.5598 11.5 14.8332 10.2267 14.8332 8.66668C14.8332 7.10668 13.5598 5.83334 11.9998 5.83334Z" fill="#417F56"/>
<path d="M17.7268 19.1667C17.4534 19.1667 17.2268 18.94 17.2268 18.6667C17.2268 16.3667 14.8801 14.5 12.0001 14.5C9.1201 14.5 6.77344 16.3667 6.77344 18.6667C6.77344 18.94 6.54677 19.1667 6.27344 19.1667C6.0001 19.1667 5.77344 18.94 5.77344 18.6667C5.77344 15.82 8.56677 13.5 12.0001 13.5C15.4334 13.5 18.2268 15.82 18.2268 18.6667C18.2268 18.94 18.0001 19.1667 17.7268 19.1667Z" fill="#417F56"/>
</svg>
